<?xml version="1.0" encoding="UTF-8"?>
<svg width="62px" height="562px" viewBox="0 0 62 562" version="1.1" xmlns="http://www.w3.org/2000/svg" xmlns:xlink="http://www.w3.org/1999/xlink">
    <!-- Generator: Sketch 49.3 (51167) - http://www.bohemiancoding.com/sketch -->
    <title>图标svg切图</title>
    <desc>Created with Sketch.</desc>
    <defs>
        <polygon id="path-1" points="0 0 8 0 4 5"></polygon>
        <polygon id="path-3" points="7 3.397 3.5175 0 0 3.397 0.7035 4.1005 3.514 1.3865 6.2965 4.1005"></polygon>
        <path d="M12.601,11.187 C13.476,10.018 14,8.572 14,7 C14,3.134 10.866,0 7,0 C3.134,0 0,3.134 0,7 C0,10.866 3.134,14 7,14 C8.572,14 10.018,13.476 11.186,12.601 L14.586,16 L16,14.586 L12.601,11.187 Z M7,12 C4.243,12 2,9.757 2,7 C2,4.243 4.243,2 7,2 C9.757,2 12,4.243 12,7 C12,9.757 9.757,12 7,12 Z" id="path-5"></path>
        <path d="M12.601,11.187 C13.476,10.018 14,8.572 14,7 C14,3.134 10.866,0 7,0 C3.134,0 0,3.134 0,7 C0,10.866 3.134,14 7,14 C8.572,14 10.018,13.476 11.186,12.601 L14.586,16 L16,14.586 L12.601,11.187 Z M7,12 C4.243,12 2,9.757 2,7 C2,4.243 4.243,2 7,2 C9.757,2 12,4.243 12,7 C12,9.757 9.757,12 7,12 Z" id="path-7"></path>
        <path d="M0,0 L2,0 L2,2 L0,2 L0,0 Z M3,0 L5,0 L5,2 L3,2 L3,0 Z M6,0 L8,0 L8,2 L6,2 L6,0 Z M0,3 L2,3 L2,5 L0,5 L0,3 Z M3,3 L5,3 L5,5 L3,5 L3,3 Z M6,3 L8,3 L8,5 L6,5 L6,3 Z" id="path-9"></path>
        <path d="M12,2 L16,2 L16,16 L0,16 L0,2 L4,2 L4,0 L6,0 L6,2 L10,2 L10,0 L12,0 L12,2 Z M14,14 L14,4 L12,4 L12,5 L10,5 L10,4 L6,4 L6,5 L4,5 L4,4 L2,4 L2,14 L14,14 Z" id="path-11"></path>
        <polygon id="path-13" points="14 6.794 7.035 0 0 6.794 1.407 8.201 7.028 2.773 12.593 8.201"></polygon>
        <polygon id="path-15" points="14 6.794 7.035 0 0 6.794 1.407 8.201 7.028 2.773 12.593 8.201"></polygon>
        <polygon id="path-17" points="11.4 1.5 9.9 0 5.7 4.3 1.5 0 0 1.5 4.3 5.7 0 9.9 1.5 11.4 5.7 7.1 9.9 11.4 11.4 9.9 7.1 5.7"></polygon>
        <polygon id="path-19" points="11.4 1.5 9.9 0 5.7 4.3 1.5 0 0 1.5 4.3 5.7 0 9.9 1.5 11.4 5.7 7.1 9.9 11.4 11.4 9.9 7.1 5.7"></polygon>
        <polygon id="path-21" points="0 0 8 0 4 5"></polygon>
        <polygon id="path-23" points="0 0 8 0 4 5"></polygon>
    </defs>
    <g id="Page-1" stroke="none" stroke-width="1" fill="none" fill-rule="evenodd">
        <g id="图标svg切图">
            <g id="点评" transform="translate(2.000000, 50.000000)" fill="#666A75" fill-rule="nonzero">
                <path d="M9.1133869,0 L9.1133869,1 L2,1 C1.44771525,1 1,1.44771525 1,2 L1,14 C1,14.5522847 1.44771526,15 2,15 L12,15 C12.5522847,15 13,14.5522847 13,14 L13,5.74506453 L14,5.74506453 L14,14 C14,15.1045695 13.1045695,16 12,16 L2,16 C0.895430511,16 0,15.1045695 0,14 L0,2 C0,0.895430505 0.895430505,0 2,0 L9.1133869,0 Z" id="Rectangle-2"></path>
                <rect id="Rectangle-5" transform="translate(10.105087, 5.991537) rotate(30.000000) translate(-10.105087, -5.991537) " x="9.60508683" y="-0.278717804" width="1" height="12.5405092"></rect>
            </g>
            <g id="点评-copy" transform="translate(20.000000, 50.000000)" fill="#F66F6A" fill-rule="nonzero">
                <path d="M9.1133869,0 L9.1133869,1 L2,1 C1.44771525,1 1,1.44771525 1,2 L1,14 C1,14.5522847 1.44771526,15 2,15 L12,15 C12.5522847,15 13,14.5522847 13,14 L13,5.74506453 L14,5.74506453 L14,14 C14,15.1045695 13.1045695,16 12,16 L2,16 C0.895430511,16 0,15.1045695 0,14 L0,2 C0,0.895430505 0.895430505,0 2,0 L9.1133869,0 Z" id="Rectangle-2"></path>
                <rect id="Rectangle-5" transform="translate(10.105087, 5.991537) rotate(30.000000) translate(-10.105087, -5.991537) " x="9.60508683" y="-0.278717804" width="1" height="12.5405092"></rect>
            </g>
            <g id="心" transform="translate(1.000000, 15.000000)" stroke="#666A75">
                <path d="M8.00002731,14 L7.8739374,13.9269693 C7.5526867,13.7404442 0,9.3091713 0,4.23817638 C0,2.15461418 1.49620249,0 3.99924903,0 C5.83924038,0 7.4097387,1.03361211 8.00002731,2.47496531 C8.59029772,1.03363026 10.1607596,0 12.0008056,0 C14.5038521,0 16,2.15461418 16,4.23817638 C16,9.3091713 8.4473315,13.7404624 8.12553464,13.9269693 L8.00002731,14 Z" id="Shape"></path>
            </g>
            <g id="心-copy" transform="translate(19.000000, 15.000000)" stroke="#F66F6A">
                <path d="M8.00002731,14 L7.8739374,13.9269693 C7.5526867,13.7404442 0,9.3091713 0,4.23817638 C0,2.15461418 1.49620249,0 3.99924903,0 C5.83924038,0 7.4097387,1.03361211 8.00002731,2.47496531 C8.59029772,1.03363026 10.1607596,0 12.0008056,0 C14.5038521,0 16,2.15461418 16,4.23817638 C16,9.3091713 8.4473315,13.7404624 8.12553464,13.9269693 L8.00002731,14 Z" id="Shape"></path>
            </g>
            <g id="心-copy-2" transform="translate(37.000000, 15.000000)" fill="#F66F6A" fill-rule="nonzero" stroke="#F66F6A">
                <path d="M8.00002731,14 L7.8739374,13.9269693 C7.5526867,13.7404442 0,9.3091713 0,4.23817638 C0,2.15461418 1.49620249,0 3.99924903,0 C5.83924038,0 7.4097387,1.03361211 8.00002731,2.47496531 C8.59029772,1.03363026 10.1607596,0 12.0008056,0 C14.5038521,0 16,2.15461418 16,4.23817638 C16,9.3091713 8.4473315,13.7404624 8.12553464,13.9269693 L8.00002731,14 Z" id="Shape"></path>
            </g>
            <g id="点赞-copy" transform="translate(1.000000, 32.000000)">
                <g id="Group-2" stroke="#666A75">
                    <path d="M5.1920293,5.49609212 L5.12963853,5.5 L2,5.5 C1.17157288,5.5 0.5,6.17157288 0.5,7 L0.5,14 C0.5,14.8284271 1.17157288,15.5 2,15.5 L11.557204,15.5 C12.2033137,15.5 12.7768246,15.0862704 12.9806271,14.4731454 L15.3074249,7.4731454 C15.3581461,7.32055429 15.3840018,7.16080016 15.3840018,7 C15.3840018,6.17157288 14.7124289,5.5 13.8840018,5.5 L9.9841087,5.5 L10.1979251,4.84486754 C10.3252592,4.45471671 10.5131619,3.97258794 10.762025,3.39619607 C11.2576752,2.24822023 11.0241125,1.40785291 10.3047945,0.924431646 C9.70387136,0.52057826 8.91136059,0.504514442 8.64327146,0.799465681 C8.42541725,1.03914853 8.29448796,1.25275966 8.20733948,1.48940209 C8.15027796,1.64434658 8.11344108,1.7955777 8.0581864,2.08155784 C7.90321787,2.88362424 7.81447704,3.21359065 7.53884597,3.80547 C7.08327416,4.78374705 6.2829395,5.35889436 5.1920293,5.49609212 Z" id="Combined-Shape"></path>
                </g>
                <rect id="Rectangle-4" fill="#666A75" fill-rule="nonzero" x="3" y="5" width="1" height="11"></rect>
            </g>
            <g id="点赞-copy-2" transform="translate(19.000000, 32.000000)">
                <g id="Group-2" stroke="#F66F6A">
                    <path d="M5.1920293,5.49609212 L5.12963853,5.5 L2,5.5 C1.17157288,5.5 0.5,6.17157288 0.5,7 L0.5,14 C0.5,14.8284271 1.17157288,15.5 2,15.5 L11.557204,15.5 C12.2033137,15.5 12.7768246,15.0862704 12.9806271,14.4731454 L15.3074249,7.4731454 C15.3581461,7.32055429 15.3840018,7.16080016 15.3840018,7 C15.3840018,6.17157288 14.7124289,5.5 13.8840018,5.5 L9.9841087,5.5 L10.1979251,4.84486754 C10.3252592,4.45471671 10.5131619,3.97258794 10.762025,3.39619607 C11.2576752,2.24822023 11.0241125,1.40785291 10.3047945,0.924431646 C9.70387136,0.52057826 8.91136059,0.504514442 8.64327146,0.799465681 C8.42541725,1.03914853 8.29448796,1.25275966 8.20733948,1.48940209 C8.15027796,1.64434658 8.11344108,1.7955777 8.0581864,2.08155784 C7.90321787,2.88362424 7.81447704,3.21359065 7.53884597,3.80547 C7.08327416,4.78374705 6.2829395,5.35889436 5.1920293,5.49609212 Z" id="Combined-Shape"></path>
                </g>
                <rect id="Rectangle-4" fill="#F66F6A" fill-rule="nonzero" x="3" y="5" width="1" height="11"></rect>
            </g>
            <g id="点赞-copy-3" transform="translate(37.000000, 32.000000)">
                <g id="Group-2">
                    <g id="Combined-Shape">
                        <g id="path-10-link" fill="#F66F6A" fill-rule="nonzero">
                            <path d="M5.12963853,5 C6.05119192,4.88410131 6.70317393,4.41556519 7.08558454,3.59439163 C7.77419817,2.11568972 7.356237,1.4720821 8.27327123,0.463162498 C9.19030546,-0.545757102 12.5347575,0.55174953 11.2210658,3.59439163 C10.9778087,4.15779969 10.7952035,4.62633581 10.6732502,5 L13.8840018,5 C14.9885713,5 15.8840018,5.8954305 15.8840018,7 C15.8840018,7.21440021 15.8495276,7.42740571 15.7818993,7.63086053 L13.4551015,14.6308605 C13.1833648,15.4483605 12.4186836,16 11.557204,16 L2,16 C0.8954305,16 -7.52907669e-16,15.1045695 -8.8817842e-16,14 L-8.8817842e-16,7 C-1.02344917e-15,5.8954305 0.8954305,5 2,5 L5.12963853,5 Z" id="path-10"></path>
                        </g>
                        <path d="M5.1920293,5.49609212 L5.12963853,5.5 L2,5.5 C1.17157288,5.5 0.5,6.17157288 0.5,7 L0.5,14 C0.5,14.8284271 1.17157288,15.5 2,15.5 L11.557204,15.5 C12.2033137,15.5 12.7768246,15.0862704 12.9806271,14.4731454 L15.3074249,7.4731454 C15.3581461,7.32055429 15.3840018,7.16080016 15.3840018,7 C15.3840018,6.17157288 14.7124289,5.5 13.8840018,5.5 L9.9841087,5.5 L10.1979251,4.84486754 C10.3252592,4.45471671 10.5131619,3.97258794 10.762025,3.39619607 C11.2576752,2.24822023 11.0241125,1.40785291 10.3047945,0.924431646 C9.70387136,0.52057826 8.91136059,0.504514442 8.64327146,0.799465681 C8.42541725,1.03914853 8.29448796,1.25275966 8.20733948,1.48940209 C8.15027796,1.64434658 8.11344108,1.7955777 8.0581864,2.08155784 C7.90321787,2.88362424 7.81447704,3.21359065 7.53884597,3.80547 C7.08327416,4.78374705 6.2829395,5.35889436 5.1920293,5.49609212 Z" id="Shape" stroke="#F66F6A"></path>
                    </g>
                </g>
                <rect id="Rectangle-4" fill="#FFFFFF" fill-rule="nonzero" x="3" y="5" width="1" height="11"></rect>
            </g>
            <g id="回复" transform="translate(1.000000, 68.000000)">
                <rect id="Rectangle-11" fill="#666A75" fill-rule="nonzero" x="3" y="6" width="2" height="1"></rect>
                <rect id="Rectangle-11-Copy" fill="#666A75" fill-rule="nonzero" x="7" y="6" width="2" height="1"></rect>
                <rect id="Rectangle-11-Copy-2" fill="#666A75" fill-rule="nonzero" x="11" y="6" width="2" height="1"></rect>
                <path d="M7.87345019,14.9436849 C7.92449062,14.1625283 7.97120263,13.46371 8.01358785,12.8472095 L8.0456057,12.3815042 L8.51241034,12.3815042 L13.8275646,12.3815042 C14.7153924,12.3815042 15.5,11.5131647 15.5,10.5287966 L15.5,2.21658475 C15.5,1.26428542 14.7673269,0.5 13.8755361,0.5 L2.12552659,0.5 C1.23305853,0.5 0.5,1.26493716 0.5,2.21765327 L0.5,10.5287966 C0.5,11.5136041 1.28394569,12.3815042 2.17243539,12.3815042 L4.58379974,12.3815042 L4.71936086,12.4872146 C5.39904087,13.0172286 6.45041822,13.8360631 7.87345019,14.9436849 Z" id="Path" stroke="#666A75"></path>
            </g>
            <g id="回复-copy" transform="translate(19.000000, 68.000000)">
                <rect id="Rectangle-11" fill="#F66F6A" fill-rule="nonzero" x="3" y="6" width="2" height="1"></rect>
                <rect id="Rectangle-11-Copy" fill="#F66F6A" fill-rule="nonzero" x="7" y="6" width="2" height="1"></rect>
                <rect id="Rectangle-11-Copy-2" fill="#F66F6A" fill-rule="nonzero" x="11" y="6" width="2" height="1"></rect>
                <path d="M7.87345019,14.9436849 C7.92449062,14.1625283 7.97120263,13.46371 8.01358785,12.8472095 L8.0456057,12.3815042 L8.51241034,12.3815042 L13.8275646,12.3815042 C14.7153924,12.3815042 15.5,11.5131647 15.5,10.5287966 L15.5,2.21658475 C15.5,1.26428542 14.7673269,0.5 13.8755361,0.5 L2.12552659,0.5 C1.23305853,0.5 0.5,1.26493716 0.5,2.21765327 L0.5,10.5287966 C0.5,11.5136041 1.28394569,12.3815042 2.17243539,12.3815042 L4.58379974,12.3815042 L4.71936086,12.4872146 C5.39904087,13.0172286 6.45041822,13.8360631 7.87345019,14.9436849 Z" id="Path" stroke="#F66F6A"></path>
            </g>
            <g id="分享" transform="translate(0.000000, 87.000000)">
                <circle id="Oval-8" stroke="#777777" cx="3.71875" cy="10.09375" r="3.21875"></circle>
                <circle id="Oval-8-Copy" stroke="#777777" cx="11.15625" cy="2.65625" r="2.15625"></circle>
                <circle id="Oval-8-Copy-2" stroke="#777777" cx="14.34375" cy="12.21875" r="2.15625"></circle>
                <rect id="Rectangle-7" fill="#777777" fill-rule="nonzero" transform="translate(7.930635, 6.450686) rotate(-45.000000) translate(-7.930635, -6.450686) " x="5.27438496" y="5.95068615" width="5.3125" height="1"></rect>
                <polygon id="Rectangle-7-Copy" fill="#777777" fill-rule="nonzero" transform="translate(9.754913, 11.731365) rotate(11.000000) translate(-9.754913, -11.731365) " points="7.09866305 11.2313653 12.4111629 11.2488796 12.4111629 12.0813653 7.09866305 12.063851"></polygon>
            </g>
            <g id="微信" transform="translate(0.000000, 103.000000)" fill="#00B200" fill-rule="nonzero">
                <path d="M9.26322913,9.8854939 C8.87506818,9.8854939 8.51278462,10.1712235 8.51278462,10.5712449 C8.51278462,10.9998393 8.90094558,11.2569959 9.26322913,11.2569959 C9.65139009,11.2569959 9.88428666,10.9712663 9.88428666,10.5712449 C9.88428663,10.1712235 9.62551266,9.8854939 9.26322913,9.8854939 Z" id="Shape"></path>
                <path d="M13.3777352,9.8854939 C12.9895743,9.8854939 12.6272907,10.1712235 12.6272907,10.5712449 C12.6272907,10.9998393 13.0154517,11.2569959 13.3777352,11.2569959 C13.7658962,11.2569959 13.9987928,10.9712663 13.9987928,10.5712449 C13.9987928,10.1712235 13.7658962,9.8854939 13.3777352,9.8854939 Z" id="Shape"></path>
                <path d="M18.7154217,14 C18.4143603,14 18.1132989,14.3428755 18.1132989,14.685751 C18.1132989,15.0286265 18.4143603,15.371502 18.7154217,15.371502 C19.1837395,15.371502 19.4848009,15.0286265 19.4848009,14.685751 C19.4848009,14.3428755 19.1837395,14 18.7154217,14 Z" id="Shape"></path>
                <path d="M15.9724176,14 C15.6713562,14 15.3702948,14.3428755 15.3702948,14.685751 C15.3702948,15.0286265 15.6713562,15.371502 15.9724176,15.371502 C16.4407354,15.371502 16.7417968,15.0286265 16.7417968,14.685751 C16.7417968,14.3428755 16.4407354,14 15.9724176,14 Z" id="Shape"></path>
                <path d="M14,0 C6.25333332,0 0,6.25333332 0,14 C0,21.7466667 6.25333332,28 14,28 C21.7466667,28 28,21.7466667 28,14 C28,6.25333332 21.7466667,0 14,0 Z M11.4508468,17.1849325 C10.7132834,17.1849325 10.1098226,17.0173045 9.37225924,16.8832021 L7.29367169,17.9224958 L7.89713259,16.1456387 C6.42200596,15.106345 5.51681462,13.7653208 5.51681462,12.1225661 C5.51681462,9.27288968 8.19886303,7.06019974 11.4843723,7.06019974 C14.4011,7.06019974 16.9825716,8.83705681 17.4854557,11.2509004 C17.284302,11.2173748 17.116674,11.2173748 16.9155204,11.2173748 C14.0993696,11.2173748 11.853154,13.3294879 11.853154,15.9444851 C11.853154,16.380318 11.9202052,16.7826252 12.020782,17.1849325 C11.8196284,17.1849325 11.6520004,17.1849325 11.4508468,17.1849325 Z M20.4021834,19.4646737 L20.8380162,20.9398003 L19.2287872,20.0346089 C18.6253263,20.1687114 18.0218654,20.3363394 17.4519301,20.3363394 C14.6022536,20.3363394 12.3895637,18.3918543 12.3895637,16.0115363 C12.3895637,13.6312184 14.6357793,11.6867333 17.4519301,11.6867333 C20.1339785,11.6867333 22.5142965,13.6312184 22.5142965,16.0115363 C22.5142965,17.3525605 21.6091052,18.5594823 20.4021834,19.4646737 Z" id="Shape"></path>
            </g>
            <g id="微博" transform="translate(0.000000, 131.000000)" fill-rule="nonzero">
                <path d="M12.507013,16.2541638 C12.4921789,16.2698617 12.4773449,16.2698617 12.4625108,16.2855597 C12.2696681,16.4268409 12.2103319,16.7094033 12.3290043,16.9134761 C12.4476768,17.0861532 12.6701876,17.117549 12.8333622,16.9919657 L12.8630303,16.9605699 C13.055873,16.8192887 13.1152092,16.5524242 13.0262049,16.3326534 C12.9075325,16.1599764 12.6701876,16.1285805 12.507013,16.2541638 Z M10.9494372,16.7251012 C10.356075,16.7878928 9.98522367,17.2745281 9.95555556,17.8553508 C9.95555556,18.3733819 10.4450794,18.7344339 11.0236075,18.6559444 C11.6169697,18.5774548 12.0768254,18.1065174 12.0768254,17.5884863 C12.0768254,17.0704552 11.69114,16.6466116 10.9494372,16.7251012 Z" id="Shape" fill="#F3260B"></path>
                <path d="M12.1260783,13.0771193 C9.20957171,13.2170842 6.84444444,14.8966631 6.84444444,16.9961367 C6.84444444,19.0956103 9.20957171,20.6507759 12.1260783,20.5263627 C15.042585,20.3863978 17.4222222,18.4113374 17.4222222,16.3274155 C17.4222222,14.2123902 15.057095,12.9371544 12.1260783,13.0771193 Z M14.3315958,18.022546 C13.4029569,19.3133335 11.531169,19.9509514 9.73193111,18.9089904 C9.22408169,18.613509 8.91937205,18.0536493 8.90486206,17.4315831 C8.90486206,17.4315831 8.55662247,14.3368035 11.6327389,13.9635637 C14.7088554,13.5747723 15.2747447,16.7317586 14.3315958,18.022546 Z" id="Shape" fill="#F3260B"></path>
                <path d="M14,0 C6.26931106,0 0,6.26931106 0,14 C0,21.7306889 6.26931106,28 14,28 C21.7306889,28 28,21.7306889 28,14 C28,6.26931106 21.7306889,5.070173e-16 14,0 Z M20.0208768,17.5803758 C18.8079332,20.1524008 14.8037578,21.4091858 11.8371608,21.1899791 C9.01670146,20.9707724 5.39248434,20.0354906 5.02713987,16.6158664 C5.02713987,16.6158664 4.83716075,15.0814196 6.32776618,13.0647182 C6.32776618,13.0647182 8.47599165,10.0542797 10.9895616,9.19206681 C13.5031315,8.32985386 13.7954071,9.79123173 13.7954071,10.6388309 C13.6638831,11.3695198 13.4154489,11.7933194 14.3507307,11.5010438 C14.3507307,11.5010438 16.8204593,10.3465553 17.82881,11.3695198 C18.6471816,12.1878914 17.960334,13.3131524 17.960334,13.3131524 C17.960334,13.3131524 17.6242171,13.6931106 18.3256785,13.8246347 C19.0271399,13.9707724 21.2338205,14.993737 20.0208768,17.5803758 Z M17.5511482,10.4634656 L17.5803758,10.4634656 L17.5511482,10.4634656 C17.302714,10.4488518 17.0981211,10.2296451 17.0981211,9.98121086 C17.0981211,9.71816284 17.3173278,9.49895616 17.5803758,9.49895616 C17.5803758,9.49895616 20.605428,8.94363257 20.2400835,12.1878914 C20.2400835,12.2025052 20.2254697,12.217119 20.2254697,12.2463466 C20.1816284,12.480167 19.9624217,12.6555324 19.7286013,12.6555324 C19.4655532,12.6555324 19.1878914,12.4363257 19.1878914,12.1732777 L19.1878914,12.1586639 C19.1878914,12.1440501 19.7139875,9.98121086 17.5511482,10.4634656 Z M22.7098121,12.7724426 C22.6221294,13.3277662 22.3590814,13.5031315 22.0375783,13.5031315 C21.65762,13.5031315 21.3361169,13.4008351 21.3361169,13.006263 C21.3361169,12.7724426 21.394572,12.5386221 21.4676409,12.3340292 C21.5114823,12.1878914 21.8329854,11.3110647 21.2484342,9.99582463 C20.1670146,8.18371608 18.0041754,8.15448852 17.7557411,8.27139875 C17.5511482,8.34446764 17.3319415,8.38830898 17.1127349,8.41753653 C16.7181628,8.41753653 16.4112735,8.0960334 16.4112735,7.70146138 C16.4112735,7.37995825 16.6158664,7.10229645 16.9227557,7.01461378 C16.9227557,7 16.9373695,6.98538622 16.9373695,6.98538622 C16.9519833,6.95615866 16.9812109,6.94154489 17.0104384,6.92693111 C17.3173278,6.86847599 18.3841336,6.5908142 19.4363257,6.83924843 C21.2922756,7.26304802 23.8643006,9.44050104 22.7098121,12.7724426 Z" id="Shape" fill="#E3432E"></path>
            </g>
            <g id="分享-copy" transform="translate(18.000000, 87.000000)">
                <circle id="Oval-8" stroke="#F66F6A" cx="3.71875" cy="10.09375" r="3.21875"></circle>
                <circle id="Oval-8-Copy" stroke="#F66F6A" cx="11.15625" cy="2.65625" r="2.15625"></circle>
                <circle id="Oval-8-Copy-2" stroke="#F66F6A" cx="14.34375" cy="12.21875" r="2.15625"></circle>
                <rect id="Rectangle-7" fill="#F66F6A" fill-rule="nonzero" transform="translate(7.930635, 6.450686) rotate(-45.000000) translate(-7.930635, -6.450686) " x="5.27438496" y="5.95068615" width="5.3125" height="1"></rect>
                <polygon id="Rectangle-7-Copy" fill="#F66F6A" fill-rule="nonzero" transform="translate(9.754913, 11.731365) rotate(11.000000) translate(-9.754913, -11.731365) " points="7.09866305 11.2313653 12.4111629 11.2488796 12.4111629 12.0813653 7.09866305 12.063851"></polygon>
            </g>
            <g id="链接" transform="translate(0.000000, 159.000000)" fill-rule="nonzero">
                <circle id="Oval-9" fill="#499DF2" cx="14" cy="14" r="14"></circle>
                <g id="Shape" transform="translate(7.000000, 7.000000)" fill="#FFFFFF">
                    <path d="M13.0560469,1.02247191 L13.0108312,0.977528091 C11.6995745,-0.325842697 9.61965016,-0.325842697 8.3083935,0.977528091 L5.3241542,3.94382023 C4.01289754,5.24719102 4.01289754,7.31460675 5.3241542,8.61797753 L5.36936994,8.66292135 C5.45980143,8.75280898 5.59544867,8.88764045 5.73109592,8.9775281 L6.81627385,7.89887641 C6.6806266,7.80898877 6.54497937,7.71910113 6.45454787,7.62921349 L6.40933213,7.58426968 C5.68588017,6.86516855 5.68588017,5.74157304 6.40933213,5.06741575 L9.39357143,2.10112361 C10.0718076,1.38202248 11.2474171,1.38202248 11.9256532,2.10112361 L11.970869,2.14606743 C12.6943209,2.86516855 12.6943209,3.98876406 11.970869,4.66292135 L10.6143966,6.01123596 C10.8404753,6.59550562 10.9761226,7.2247191 10.9309068,7.80898877 L13.0108312,5.74157304 C14.3220878,4.39325841 14.3220878,2.28089886 13.0560469,1.02247191 Z M8.62490372,5.29213482 C8.53447223,5.20224719 8.39882498,5.06741572 8.26317774,4.97752807 L7.17799982,6.10112359 C7.31364707,6.19101123 7.4492943,6.28089887 7.5397258,6.37078651 L7.58494154,6.41573032 C8.3083935,7.13483145 8.3083935,8.25842696 7.58494154,8.93258425 L4.60070225,11.8988764 C3.87725029,12.6179775 2.74685662,12.6179775 2.06862042,11.8988764 L2.02340468,11.8539326 C1.29995273,11.1348314 1.29995273,10.0112359 2.02340468,9.33707865 L3.37987709,7.98876404 C3.15379835,7.40449438 3.01815111,6.7752809 3.06336685,6.19101123 L0.983442496,8.25842696 C-0.327814165,9.56179774 -0.327814165,11.6292135 0.983442496,12.9325843 L0.983442496,13.0224719 C2.29469916,14.3258427 4.37462351,14.3258427 5.68588017,13.0224719 L8.67011947,10.0561798 C9.98137613,8.75280898 9.98137613,6.68539325 8.67011947,5.38202247 L8.62490372,5.29213482 Z"></path>
                </g>
            </g>
            <g id="支持" transform="translate(0.000000, 187.000000)" stroke="#666A75">
                <circle id="Oval-12" cx="8" cy="8" r="7.5"></circle>
                <polyline id="Path-7" stroke-linecap="round" points="4 8.46317565 7.40365835 11.0484203 11.6945917 5"></polyline>
            </g>
            <g id="Group-19" transform="translate(0.000000, 203.000000)">
                <polygon id="Rectangle-80" fill="#E34D48" fill-rule="nonzero" points="2 0 5 0 5 3 0 3"></polygon>
                <polygon id="Rectangle-81" fill="#E34D48" fill-rule="nonzero" points="59 57 62 57 62 60 59 62"></polygon>
                <polygon id="Combined-Shape" fill="#F66F6A" fill-rule="nonzero" points="28 0 62 34 62 60 2 0"></polygon>
                <g id="点评" transform="translate(38.849242, 24.062446) rotate(45.000000) translate(-38.849242, -24.062446) translate(24.849242, 14.062446)" fill="#FFFFFF" font-family="PingFangSC-Regular, PingFang SC" font-size="14" font-weight="normal">
                    <g id="Group">
                        <text id="点评">
                            <tspan x="-1.0658141e-14" y="15">点评</tspan>
                        </text>
                    </g>
                </g>
            </g>
            <g id="导出" transform="translate(14.000000, 265.000000)">
                <polygon id="Combined-Shape" fill="#666A75" fill-rule="nonzero" points="1 13 13 13 13 8 14 8 14 14 0 14 0 8 1 8"></polygon>
                <polygon id="Rectangle-20" stroke="#666A75" transform="translate(7.004254, 5.606685) scale(-1, 1) rotate(-180.000000) translate(-7.004254, -5.606685) " points="5.5 0.7074508 5.5 6.71288128 3.21242524 6.71114422 7.00059257 10.50592 10.796082 6.70965508 8.5 6.71108973 8.5 0.7074508"></polygon>
            </g>
            <g id="消息-copy" transform="translate(0.000000, 298.000000)">
                <path d="M4.22444126,15.1378411 L7.23601568,13.5610311 L7.39671976,13.584641 C7.91240342,13.6604028 8.43907864,13.6988562 8.97222222,13.6988562 C13.6736067,13.6988562 17.4444444,10.7151147 17.4444444,7.09942811 C17.4444444,3.48374147 13.6736067,0.5 8.97222222,0.5 C4.27083775,0.5 0.5,3.48374147 0.5,7.09942811 C0.5,9.2703881 1.86547,11.2796188 4.13228739,12.5135019 L4.41691401,12.668431 L4.22444126,15.1378411 Z" id="Combined-Shape" stroke="#858CC3"></path>
                <circle id="Oval-2" fill="#858CC3" fill-rule="nonzero" cx="4.23529412" cy="7.35294118" r="1.05882353"></circle>
                <circle id="Oval-2-Copy" fill="#858CC3" fill-rule="nonzero" cx="9" cy="7.35294118" r="1.05882353"></circle>
                <circle id="Oval-2-Copy-2" fill="#858CC3" fill-rule="nonzero" cx="13.7647059" cy="7.35294118" r="1.05882353"></circle>
            </g>
            <g id="浏览-copy" transform="translate(0.000000, 282.000000)" stroke="#858CC3">
                <path d="M17.4314595,6.26805551 C15.3014183,2.40047756 12.5036717,0.5 9,0.5 C5.49632831,0.5 2.69858169,2.40047756 0.56854046,6.26805551 C2.69499604,10.1353663 5.49265679,12.0357143 9,12.0357143 C12.5073432,12.0357143 15.305004,10.1353663 17.4314595,6.26805551 Z" id="Oval-4"></path>
                <ellipse id="Oval-5" cx="9" cy="6.03571429" rx="2.36842105" ry="2.32142857"></ellipse>
            </g>
            <polyline id="Path-2" stroke="#FFFFFF" points="1 345 1 316 61 316"></polyline>
            <polyline id="Path-2" stroke="#FFFFFF" transform="translate(31.000000, 360.500000) rotate(180.000000) translate(-31.000000, -360.500000) " points="1 375 1 346 61 346"></polyline>
            <g id="Group-12" transform="translate(4.000000, 380.000000) rotate(-90.000000) translate(-4.000000, -380.000000) translate(-1.000000, 377.000000)" fill="#666A75" fill-rule="nonzero">
                <polygon id="Shape" points="4.85640951 -1.77635684e-15 3.8851276 0.971281901 8.69321463 5.661324 9.66380621 4.6900421"></polygon>
                <polygon id="Shape" points="5.82769141 0.971281901 4.85640951 0 0 4.6900421 0.971281901 5.661324"></polygon>
            </g>
            <g id="Group-12" transform="translate(4.000000, 390.000000) scale(-1, 1) rotate(-90.000000) translate(-4.000000, -390.000000) translate(-1.000000, 387.000000)" fill="#666A75" fill-rule="nonzero">
                <polygon id="Shape" points="4.85640951 0 3.8851276 0.971281901 8.69321463 5.661324 9.66380621 4.6900421"></polygon>
                <polygon id="Shape" points="5.82769141 0.971281901 4.85640951 0 0 4.6900421 0.971281901 5.661324"></polygon>
            </g>
            <g id="Icon/Function/Down" transform="translate(5.000000, 409.000000)">
                <g id="Color/Txt/Heading/#3B516A-Copy">
                    <g id="Mask" fill="#777777" fill-rule="nonzero">
                        <polygon id="path-1" points="0 0 8 0 4 5"></polygon>
                    </g>
                    <g id="Color/#666A75-Clipped">
                        <g>
                            <mask id="mask-2" fill="white">
                                <use xlink:href="#path-1"></use>
                            </mask>
                            <g id="path-1"></g>
                            <g id="Color/#666A75" mask="url(#mask-2)">
                                <g transform="translate(-4.000000, -6.000000)" id="Color/Txt/Heading/#3B516A">
                                    <g>
                                        <g id="Group" fill="#666A75" fill-rule="nonzero">
                                            <g id="Rectangle-path">
                                                <rect x="0" y="0" width="16" height="16" rx="2"></rect>
                                            </g>
                                        </g>
                                    </g>
                                </g>
                            </g>
                        </g>
                    </g>
                </g>
            </g>
            <g id="Icon/Function/Next" transform="translate(1.909897, 419.000000)">
                <g id="Iocn/Function/Next" transform="translate(2.500000, 4.000000) scale(-1, 1) rotate(-90.000000) translate(-2.500000, -4.000000) translate(-1.000000, 1.500000)">
                    <g id="Mask" fill="#77787B" fill-rule="nonzero">
                        <polygon id="path-3" points="7 3.397 3.5175 0 0 3.397 0.7035 4.1005 3.514 1.3865 6.2965 4.1005"></polygon>
                    </g>
                    <g id="Color/#666A75-Clipped">
                        <g>
                            <mask id="mask-4" fill="white">
                                <use xlink:href="#path-3"></use>
                            </mask>
                            <g id="path-3"></g>
                            <g id="Color/#666A75" mask="url(#mask-4)">
                                <g transform="translate(-1.000000, -2.000000)" id="Color/Txt/Heading/#3B516A">
                                    <g>
                                        <g id="Group" fill="#666A75" fill-rule="nonzero">
                                            <g transform="translate(0.500000, 0.000000)" id="Rectangle-path">
                                                <rect x="0" y="0" width="8" height="8" rx="2"></rect>
                                            </g>
                                        </g>
                                    </g>
                                </g>
                            </g>
                        </g>
                    </g>
                </g>
            </g>
            <g id="Icon/Function/Search" transform="translate(1.000000, 427.000000)">
                <g id="Mask" fill="#77787B" fill-rule="nonzero">
                    <path d="M12.601,11.187 C13.476,10.018 14,8.572 14,7 C14,3.134 10.866,0 7,0 C3.134,0 0,3.134 0,7 C0,10.866 3.134,14 7,14 C8.572,14 10.018,13.476 11.186,12.601 L14.586,16 L16,14.586 L12.601,11.187 Z M7,12 C4.243,12 2,9.757 2,7 C2,4.243 4.243,2 7,2 C9.757,2 12,4.243 12,7 C12,9.757 9.757,12 7,12 Z" id="path-5"></path>
                </g>
                <g id="Color/#666A75-Clipped">
                    <mask id="mask-6" fill="white">
                        <use xlink:href="#path-5"></use>
                    </mask>
                    <g id="path-5"></g>
                    <g id="Color/#666A75" mask="url(#mask-6)">
                        <g transform="translate(-1.000000, -1.000000)" id="Color/Txt/Heading/#3B516A">
                            <g>
                                <g id="Group" fill="#666A75" fill-rule="nonzero">
                                    <g id="Rectangle-path">
                                        <rect x="0" y="0" width="19" height="19" rx="2"></rect>
                                    </g>
                                </g>
                            </g>
                        </g>
                    </g>
                </g>
            </g>
            <g id="Icon/Function/Search-Copy" transform="translate(20.000000, 427.000000)">
                <g id="Mask" fill="#77787B" fill-rule="nonzero">
                    <path d="M12.601,11.187 C13.476,10.018 14,8.572 14,7 C14,3.134 10.866,0 7,0 C3.134,0 0,3.134 0,7 C0,10.866 3.134,14 7,14 C8.572,14 10.018,13.476 11.186,12.601 L14.586,16 L16,14.586 L12.601,11.187 Z M7,12 C4.243,12 2,9.757 2,7 C2,4.243 4.243,2 7,2 C9.757,2 12,4.243 12,7 C12,9.757 9.757,12 7,12 Z" id="path-5"></path>
                </g>
                <g id="Color/#666A75-Clipped">
                    <mask id="mask-8" fill="white">
                        <use xlink:href="#path-7"></use>
                    </mask>
                    <g id="path-7"></g>
                    <g id="Color/#666A75" mask="url(#mask-8)">
                        <g transform="translate(-1.000000, -1.000000)" id="Rectangle-path">
                            <g>
                                <rect fill="#F66F6A" fill-rule="nonzero" x="0" y="0" width="19" height="19" rx="2"></rect>
                            </g>
                        </g>
                    </g>
                </g>
            </g>
            <g id="Group" transform="translate(0.909897, 395.000000)" fill="#1B79C8" fill-rule="nonzero">
                <path d="M3.66927819,4 L0.161443628,0.846037635 C-0.0538145425,0.652494822 -0.0538145425,0.338699922 0.161443628,0.14515711 C0.376701798,-0.0483857032 0.725704248,-0.0483857032 0.940962418,0.14515711 L4.83855637,3.64955974 C5.05381454,3.84310255 5.05381454,4.15689745 4.83855637,4.35044026 L0.940962418,7.85484289 C0.725704248,8.0483857 0.376701798,8.0483857 0.161443628,7.85484289 C-0.0538145425,7.66130008 -0.0538145425,7.34750518 0.161443628,7.15396236 L3.66927819,4 Z" id="Combined-Shape"></path>
            </g>
            <g id="Group-3" transform="translate(0.909897, 445.000000)" fill-rule="nonzero">
                <path d="M6.61851286,3 L2.16760249,-1.10012856 C1.9441325,-1.3059866 1.9441325,-1.63974843 2.16760249,-1.84560647 C2.39107249,-2.05146452 2.75338893,-2.05146452 2.97685892,-1.84560647 L7.83239751,2.62726104 C8.0558675,2.83311908 8.0558675,3.16688092 7.83239751,3.37273896 L2.97685892,7.84560647 C2.75338893,8.0514645 2.39107249,8.0514645 2.16760249,7.84560647 C1.9441325,7.63974843 1.9441325,7.30598659 2.16760249,7.10012855 L6.61851286,3 Z" id="Combined-Shape" fill="#1B79C8" transform="translate(5.000000, 3.000000) rotate(90.000000) translate(-5.000000, -3.000000) "></path>
                <path d="M16.6185129,3 L12.1676025,-1.10012855 C11.9441325,-1.30598659 11.9441325,-1.63974843 12.1676025,-1.84560647 C12.3910725,-2.05146451 12.7533889,-2.05146451 12.9768589,-1.84560647 L17.8323975,2.62726104 C18.0558675,2.83311908 18.0558675,3.16688092 17.8323975,3.37273896 L12.9768589,7.84560647 C12.7533889,8.05146451 12.3910725,8.05146451 12.1676025,7.84560647 C11.9441325,7.63974843 11.9441325,7.30598659 12.1676025,7.10012855 L16.6185129,3 Z" id="Combined-Shape" fill="#666A75" transform="translate(15.000000, 3.000000) rotate(90.000000) translate(-15.000000, -3.000000) "></path>
            </g>
            <polygon id="Shape" fill="#F66F6A" fill-rule="nonzero" points="4.40989731 453 4.50989731 456.5 1.30989731 455.3 0.90989731 456.5 4.20989731 457.5 2.00989731 460.1 2.90989731 460.9 5.00989731 458 7.10989731 460.9 8.00989731 460.1 5.80989731 457.5 9.1098973 456.5 8.70989731 455.3 5.50989731 456.5 5.60989731 453"></polygon>
            <path d="M0.500000112,467.025114 L1.12218224e-07,467.025114 L1.12218224e-07,466.025114 L0.500000112,466.025114 L15.3700217,466.025114 L15.8700217,466.025114 L15.8700217,467.025114 L15.3700217,467.025114 L0.500000112,467.025114 Z M3.91421367,470.025114 L3.41421367,470.025114 L3.41421367,469.025114 L3.91421367,469.025114 L11.9142136,469.025114 L12.4142136,469.025114 L12.4142136,470.025114 L11.9142136,470.025114 L3.91421367,470.025114 Z" id="Combined-Shape" fill="#DDDDDD" fill-rule="nonzero" transform="translate(7.935011, 468.025114) rotate(-45.000000) translate(-7.935011, -468.025114) "></path>
            <g id="Icon/Function/Date" transform="translate(0.909897, 475.000000)">
                <g id="Iocn/Function/Date">
                    <g id="Color/Txt/Heading/#3B516A" transform="translate(4.000000, 7.000000)">
                        <g id="Mask" fill="#77787B" fill-rule="nonzero">
                            <path d="M0,0 L2,0 L2,2 L0,2 L0,0 Z M3,0 L5,0 L5,2 L3,2 L3,0 Z M6,0 L8,0 L8,2 L6,2 L6,0 Z M0,3 L2,3 L2,5 L0,5 L0,3 Z M3,3 L5,3 L5,5 L3,5 L3,3 Z M6,3 L8,3 L8,5 L6,5 L6,3 Z" id="path-7"></path>
                        </g>
                        <g id="Color/#666A75-Clipped">
                            <g>
                                <mask id="mask-10" fill="white">
                                    <use xlink:href="#path-9"></use>
                                </mask>
                                <g id="path-9"></g>
                                <g id="Color/#666A75" mask="url(#mask-10)">
                                    <g transform="translate(-4.000000, -7.000000)" id="Color/Txt/Heading/#3B516A">
                                        <g>
                                            <g id="Group" fill="#666A75" fill-rule="nonzero">
                                                <g id="Rectangle-path">
                                                    <rect x="0" y="0" width="16" height="16" rx="2"></rect>
                                                </g>
                                            </g>
                                        </g>
                                    </g>
                                </g>
                            </g>
                        </g>
                    </g>
                    <g id="Mask" fill="#77787B" fill-rule="nonzero">
                        <path d="M12,2 L16,2 L16,16 L0,16 L0,2 L4,2 L4,0 L6,0 L6,2 L10,2 L10,0 L12,0 L12,2 Z M14,14 L14,4 L12,4 L12,5 L10,5 L10,4 L6,4 L6,5 L4,5 L4,4 L2,4 L2,14 L14,14 Z" id="path-9"></path>
                    </g>
                    <g id="Color/#666A75-Clipped">
                        <g>
                            <mask id="mask-12" fill="white">
                                <use xlink:href="#path-11"></use>
                            </mask>
                            <g id="path-11"></g>
                            <g id="Color/#666A75" mask="url(#mask-12)" fill="#666A75" fill-rule="nonzero">
                                <rect id="Color/Txt/Heading/#3B516A" x="0" y="0" width="16" height="16" rx="2"></rect>
                            </g>
                        </g>
                    </g>
                </g>
            </g>
            <g id="+" transform="translate(0.909897, 491.000000)" fill="#A0A2A8" fill-rule="nonzero">
                <rect id="Rectangle" x="0" y="12" width="24" height="1"></rect>
                <polygon id="Rectangle" points="13 0 13 24 12 24 12 0"></polygon>
            </g>
            <g id="Icon/Function/Back" transform="translate(3.000000, 516.000000)">
                <g id="Iocn/Function/Back" transform="translate(5.000000, 7.000000) rotate(-90.000000) translate(-5.000000, -7.000000) translate(-2.000000, 2.500000)">
                    <g id="Mask" fill="#77787B" fill-rule="nonzero">
                        <polygon id="path-11" points="14 6.794 7.035 0 0 6.794 1.407 8.201 7.028 2.773 12.593 8.201"></polygon>
                    </g>
                    <g id="Color/#666A75-Clipped">
                        <g>
                            <mask id="mask-14" fill="white">
                                <use xlink:href="#path-13"></use>
                            </mask>
                            <g id="path-13"></g>
                            <g id="Color/#666A75" mask="url(#mask-14)">
                                <g transform="translate(-1.000000, -4.000000)" id="Color/Txt/Heading/#3B516A">
                                    <g>
                                        <g id="Group" fill="#666A75" fill-rule="nonzero">
                                            <rect id="Rectangle-path" x="0" y="0" width="16" height="16" rx="2"></rect>
                                        </g>
                                    </g>
                                </g>
                            </g>
                        </g>
                    </g>
                </g>
            </g>
            <g id="Icon/Function/Next" transform="translate(19.000000, 516.000000)">
                <g id="Iocn/Function/Next" transform="translate(4.500000, 7.000000) scale(-1, 1) rotate(-90.000000) translate(-4.500000, -7.000000) translate(-2.500000, 2.500000)">
                    <g id="Mask" fill="#77787B" fill-rule="nonzero">
                        <polygon id="path-15" points="14 6.794 7.035 0 0 6.794 1.407 8.201 7.028 2.773 12.593 8.201"></polygon>
                    </g>
                    <g id="Color/#666A75-Clipped">
                        <g>
                            <mask id="mask-16" fill="white">
                                <use xlink:href="#path-15"></use>
                            </mask>
                            <g id="path-19"></g>
                            <g id="Color/#666A75" mask="url(#mask-16)">
                                <g transform="translate(-1.000000, -4.000000)" id="Color/Txt/Heading/#3B516A">
                                    <g>
                                        <g id="Group" fill="#666A75" fill-rule="nonzero">
                                            <rect id="Rectangle-path" x="0" y="0" width="16" height="16" rx="2"></rect>
                                        </g>
                                    </g>
                                </g>
                            </g>
                        </g>
                    </g>
                </g>
            </g>
            <g id="Icon/Function/Cancel" transform="translate(2.000000, 533.000000)">
                <g id="Mask" fill="#77787B" fill-rule="nonzero">
                    <polygon id="path-13" points="11.4 1.5 9.9 0 5.7 4.3 1.5 0 0 1.5 4.3 5.7 0 9.9 1.5 11.4 5.7 7.1 9.9 11.4 11.4 9.9 7.1 5.7"></polygon>
                </g>
                <mask id="mask-18" fill="white">
                    <use xlink:href="#path-17"></use>
                </mask>
                <g id="path-15"></g>
                <g id="Color/#666A75" mask="url(#mask-18)">
                    <g transform="translate(-2.000000, -2.000000)" id="Color/Txt/Heading/#3B516A">
                        <g>
                            <rect id="Rectangle-path" fill="#666A75" fill-rule="nonzero" x="0" y="0" width="16" height="16" rx="2"></rect>
                        </g>
                    </g>
                </g>
            </g>
            <g id="编辑" transform="translate(1.000000, 545.000000)">
                <g id="Group-9" transform="translate(8.924621, 8.924621) rotate(45.000000) translate(-8.924621, -8.924621) translate(5.924621, -0.575379)">
                    <rect id="Rectangle-12" stroke="#666A75" x="0.5" y="4.5" width="5" height="9"></rect>
                    <path d="M0.5,4.5 L5.5,4.5 L5.5,2.2 C5.5,1.37157288 4.82842712,0.7 4,0.7 L2,0.7 C1.17157288,0.7 0.5,1.37157288 0.5,2.2 L0.5,4.5 Z" id="Rectangle-13" stroke="#666A75"></path>
                    <path d="M1.17924764,14 L0,14 L2.57600085,18.1216014 C2.6162412,18.1859859 2.67061596,18.2403607 2.73500053,18.280601 C2.9691688,18.4269562 3.27764399,18.3557696 3.42399915,18.1216014 L6,14 L4.82075236,14 L3,16.9132038 L1.17924764,14 Z" id="Triangle" fill="#666A75" fill-rule="nonzero"></path>
                </g>
                <rect id="Rectangle-14" fill="#666A75" fill-rule="nonzero" x="10.2528561" y="14" width="8.33714152" height="1" rx="0.5"></rect>
                <rect id="Rectangle-14" fill="#666A75" fill-rule="nonzero" x="4" y="16" width="15" height="1" rx="0.5"></rect>
            </g>
            <g id="编辑-copy" transform="translate(19.000000, 545.000000)">
                <g id="Group-9" transform="translate(8.924621, 8.924621) rotate(45.000000) translate(-8.924621, -8.924621) translate(5.924621, -0.575379)">
                    <rect id="Rectangle-12" stroke="#F66F6A" x="0.5" y="4.5" width="5" height="9"></rect>
                    <path d="M0.5,4.5 L5.5,4.5 L5.5,2.2 C5.5,1.37157288 4.82842712,0.7 4,0.7 L2,0.7 C1.17157288,0.7 0.5,1.37157288 0.5,2.2 L0.5,4.5 Z" id="Rectangle-13" stroke="#F66F6A"></path>
                    <path d="M1.17924764,14 L0,14 L2.57600085,18.1216014 C2.6162412,18.1859859 2.67061596,18.2403607 2.73500053,18.280601 C2.9691688,18.4269562 3.27764399,18.3557696 3.42399915,18.1216014 L6,14 L4.82075236,14 L3,16.9132038 L1.17924764,14 Z" id="Triangle" fill="#F66F6A" fill-rule="nonzero"></path>
                </g>
                <rect id="Rectangle-14" fill="#F66F6A" fill-rule="nonzero" x="10.2528561" y="14" width="8.33714152" height="1" rx="0.5"></rect>
                <rect id="Rectangle-14" fill="#F66F6A" fill-rule="nonzero" x="4" y="16" width="15" height="1" rx="0.5"></rect>
            </g>
            <g id="Icon/Function/Cancel-Copy-2" transform="translate(18.000000, 533.000000)">
                <g id="Mask" fill="#77787B" fill-rule="nonzero">
                    <polygon id="path-13" points="11.4 1.5 9.9 0 5.7 4.3 1.5 0 0 1.5 4.3 5.7 0 9.9 1.5 11.4 5.7 7.1 9.9 11.4 11.4 9.9 7.1 5.7"></polygon>
                </g>
                <g id="Color/#666A75-Clipped">
                    <g>
                        <mask id="mask-20" fill="white">
                            <use xlink:href="#path-19"></use>
                        </mask>
                        <g id="path-17"></g>
                        <g id="Color/#666A75" mask="url(#mask-20)">
                            <g transform="translate(-2.000000, -2.000000)" id="Color/Txt/Heading/#3B516A">
                                <g>
                                    <rect id="Rectangle-path" fill="#F66F6A" fill-rule="nonzero" x="0" y="0" width="16" height="16" rx="2"></rect>
                                </g>
                            </g>
                        </g>
                    </g>
                </g>
            </g>
            <g id="Icon/Function/Down" transform="translate(25.000000, 410.500000) scale(-1, 1) rotate(-180.000000) translate(-25.000000, -410.500000) translate(21.000000, 408.000000)">
                <g id="Color/Txt/Heading/#3B516A-Copy">
                    <g id="Mask" fill="#777777" fill-rule="nonzero">
                        <polygon id="path-21" points="0 0 8 0 4 5"></polygon>
                    </g>
                    <g id="Color/#666A75-Clipped">
                        <mask id="mask-22" fill="white">
                            <use xlink:href="#path-21"></use>
                        </mask>
                        <g id="path-21"></g>
                        <g id="Color/#666A75" mask="url(#mask-22)">
                            <g transform="translate(-4.000000, -6.000000)" id="Color/Txt/Heading/#3B516A">
                                <g>
                                    <rect id="Rectangle-path" fill="#666A75" fill-rule="nonzero" x="0" y="0" width="16" height="16" rx="2"></rect>
                                </g>
                            </g>
                        </g>
                    </g>
                </g>
            </g>
            <g id="Icon/Function/Down" transform="translate(37.000000, 409.000000)">
                <g id="Color/Txt/Heading/#3B516A-Copy">
                    <g id="Mask" fill="#777777" fill-rule="nonzero">
                        <polygon id="path-23" points="0 0 8 0 4 5"></polygon>
                    </g>
                    <g id="基础/Color/#A0A2A8-Clipped">
                        <mask id="mask-24" fill="white">
                            <use xlink:href="#path-23"></use>
                        </mask>
                        <g id="path-23"></g>
                        <g id="基础/Color/#A0A2A8" mask="url(#mask-24)">
                            <g transform="translate(-4.000000, -6.000000)" id="Basics/Color/#A0A2A8">
                                <g>
                                    <rect id="Rectangle-path" fill="#A0A2A8" fill-rule="nonzero" x="0" y="0" width="16" height="16" rx="2"></rect>
                                </g>
                            </g>
                        </g>
                    </g>
                </g>
            </g>
            <g id="设置-(1)" transform="translate(0.000000, 265.000000)" stroke="#666A75">
                <path d="M9.21786121,13.4766868 L10.9303832,12.4777078 L10.9485314,12.4642815 C11.0743678,12.3714413 11.1288302,12.165069 11.059127,11.9985758 C11.0327419,11.9336216 10.9981364,11.8364453 10.9630528,11.7121961 C10.9141954,11.539167 10.8804408,11.3658167 10.8690149,11.1955857 C10.865644,11.136495 10.865644,11.136495 10.8648913,11.0754798 C10.8648913,9.74268154 11.8987212,8.64780225 13.1851141,8.64780225 L13.2569287,8.64792176 C13.2624327,8.64804212 13.3243249,8.57789433 13.3613884,8.37026209 C13.4295442,7.99205885 13.5,7.44050848 13.5,7.00591937 C13.5,6.57127613 13.4299747,6.02313752 13.3612617,5.64087037 C13.3242791,5.43394929 13.2624193,5.36378808 13.2459973,5.36403649 L13.1851141,5.36403649 C11.8987212,5.36403649 10.8648913,4.26915722 10.8648913,2.93635894 C10.8656364,2.87563243 10.8656364,2.87563243 10.8689745,2.81681302 C10.8803405,2.64661471 10.9140233,2.4732928 10.9627969,2.30030608 C10.9978892,2.17584352 11.032437,2.07874735 11.0621491,2.00566157 C11.128149,1.84844766 11.0758179,1.64484351 10.9508943,1.54880628 L9.26836944,0.556199509 L9.25053056,0.547949642 C9.21356063,0.530910447 9.17112427,0.521888975 9.1213815,0.521888975 C9.01162149,0.521888975 8.90180712,0.56920549 8.83654765,0.640914943 C8.35735197,1.16460504 7.66061992,1.64325171 7.03647361,1.64325171 C6.40636151,1.64325171 5.7052212,1.15529754 5.22290971,0.620592753 C5.15791476,0.548050887 5.04757696,0.5 4.93644547,0.5 C4.8896389,0.5 4.84943735,0.508026964 4.81373464,0.523449859 L3.06875379,1.53524782 L3.05163488,1.54779765 C2.92561003,1.64050767 2.87106033,1.84658519 2.9373886,2.00477305 C3.03721156,2.24262468 3.13510866,2.59029986 3.13510866,2.9361886 C3.13510866,4.26898688 2.10127877,5.36386616 0.814885879,5.36386616 L0.741631698,5.3637131 C0.737324177,5.36360649 0.675727886,5.43352021 0.638854955,5.64004509 C0.567814088,6.04060181 0.5,6.57136339 0.5,7.0059194 C0.5,7.44040325 0.567776353,7.97076896 0.638739589,8.37089018 C0.675429203,8.57618878 0.737547766,8.64797263 0.742984187,8.64797263 C0.740098662,8.64799683 0.738337545,8.6480116 0.737175771,8.64802352 C0.739381885,8.64795066 0.743170786,8.64789014 0.754002675,8.64771711 L0.814885879,8.64771711 C2.10127877,8.64771711 3.13510866,9.74259638 3.13510866,11.0753947 C3.13510866,11.4215036 3.03308695,11.7841511 2.93781423,12.0060728 C2.87150833,12.164116 2.92468045,12.3694181 3.04698442,12.4621772 L4.70058878,13.4439502 L4.71654436,13.451466 C4.75323074,13.4685216 4.79458117,13.4774296 4.84274807,13.4774296 C4.95151819,13.4774296 5.05920966,13.4293834 5.12288286,13.3560717 C5.59630945,12.8114542 6.32074968,12.2910814 6.96344596,12.2910814 C7.61293958,12.2910814 8.32809357,12.809471 8.81637697,13.3765893 C8.8801787,13.4511933 8.98837016,13.4999632 9.09829899,13.5 L9.09845984,13.5 C9.14361924,13.5 9.1826857,13.4920757 9.21786121,13.4766868 Z M0.737175771,8.64802352 C0.735685063,8.6480388 0.735181126,8.64804939 0.734554717,8.64806915 C0.734414025,8.64807459 0.734597157,8.64806898 0.734963421,8.64805776 C0.735795979,8.64803168 0.736337316,8.64801473 0.73740228,8.64799232 L0.737175771,8.64802352 Z" id="Shape"></path>
                <path d="M6.99995646,9.125 C8.17123563,9.125 9.12492951,8.17132796 9.125,6.99995646 C9.125,5.82873661 8.1712197,4.875 6.99995646,4.875 C5.82871491,4.875 4.875,5.82871492 4.875,6.99995646 C4.875,8.1713068 5.82864952,9.125 6.99995646,9.125 Z" id="Shape"></path>
            </g>
            <g id="Group-6" fill="#A0A2A8" fill-rule="nonzero">
                <polygon id="Path-11" points="3.49555997 12 0 12 0 10 2.61673676 10 10.9621726 1 14.1678474 1 14.1678474 3 11.8409958 3"></polygon>
                <rect id="Rectangle" x="4" y="3" width="2" height="6"></rect>
                <rect id="Rectangle-Copy-2" x="4" y="0" width="2" height="2"></rect>
            </g>
        </g>
    </g>
</svg>