<?xml version="1.0" encoding="UTF-8"?>
<svg width="14px" height="7px" viewBox="0 0 14 7" version="1.1" xmlns="http://www.w3.org/2000/svg" xmlns:xlink="http://www.w3.org/1999/xlink">
    <!-- Generator: Sketch 52.5 (67469) - http://www.bohemiancoding.com/sketch -->
    <title>Mask</title>
    <desc>Created with Sketch.</desc>
    <g id="Page-1" stroke="none" stroke-width="1" fill="none" fill-rule="evenodd">
        <g id="角色系列课程详情" transform="translate(-780.000000, -749.000000)" fill="#666A75" fill-rule="nonzero">
            <g id="Group-11" transform="translate(716.000000, 742.000000)">
                <path d="M75.9827043,10.5927753 C75.9827043,10.5927753 75.9827043,10.5927753 75.9827043,10.5927753 L76.2935606,10.8777269 L76.2935606,10.1405728 L75.997283,10.4121606 C75.9714753,10.1677022 75.7649814,9.97704385 75.5136951,9.97641828 L75.309761,9.9759106 L73.0208333,7.87772694 C72.5293972,7.42724385 73.2051219,6.69008971 73.696558,7.1405728 L76.9692852,10.1405728 C77.1854688,10.3387411 77.1854688,10.6795587 76.9692852,10.8777269 C76.7756081,11.051502 76.4848252,11.0530528 76.2935606,10.8777269 L75.9827043,10.5927753 Z M75.309761,9.9759106 L73.0208333,7.87772694 L73.696558,7.1405728 L76.9692852,10.1405728 C77.1728447,10.327169 77.1865962,10.6434527 77,10.8470122 C76.9887296,10.8593071 76.9769861,10.8709096 76.9648229,10.8818174 L73.696558,13.8777269 C73.4929985,14.0643231 73.1767148,14.0505717 72.9901186,13.8470122 C72.8035224,13.6434527 72.8172738,13.327169 73.0208333,13.1405728 L75.4118827,10.9487775 L64.4863049,10.9215787 C64.2175305,10.9209096 64,10.7028369 64,10.4340617 C64,10.1661499 64.2171854,9.9489645 64.4850972,9.9489645 C64.4854998,9.9489645 64.4859023,9.948965 64.4863049,9.948966 L75.309761,9.9759106 Z" id="Mask"></path>
            </g>
        </g>
    </g>
</svg>