<?xml version="1.0" encoding="UTF-8"?>
<svg width="260px" height="148px" viewBox="0 0 260 148" version="1.1" xmlns="http://www.w3.org/2000/svg" xmlns:xlink="http://www.w3.org/1999/xlink">
    <!-- Generator: Sketch 51.3 (57544) - http://www.bohemiancoding.com/sketch -->
    <title>生态新导航切图-pc端</title>
    <desc>Created with Sketch.</desc>
    <defs></defs>
    <g id="生态新导航切图-pc端" stroke="none" stroke-width="1" fill="none" fill-rule="evenodd">
        <path d="M0,14 L18,14 L18,16 L0,16 L0,14 Z M0,8 L18,8 L18,10 L0,10 L0,8 Z M0,2 L18,2 L18,4 L0,4 L0,2 Z" id="Combined-Shape-Copy" fill="#A0A2A8"></path>
        <path d="M18,14 L36,14 L36,16 L18,16 L18,14 Z M18,8 L36,8 L36,10 L18,10 L18,8 Z M18,2 L36,2 L36,4 L18,4 L18,2 Z" id="Combined-Shape-Copy-2" fill="#A0A2A8" transform="translate(27.000000, 9.000000) rotate(-270.000000) translate(-27.000000, -9.000000) "></path>
        <g id="首页-默认" transform="translate(0.000000, 18.000000)" fill="#A0A2A8">
            <rect id="Rectangle-8" x="11" y="0" width="2" height="5"></rect>
            <polygon id="Combined-Shape" points="11 14 13 14 13 7 15 7 15 16 9 16 9 12 7 12 7 16 1 16 1 7 3 7 3 14 5 14 5 10 11 10"></polygon>
            <polygon id="Combined-Shape" fill-rule="nonzero" points="15.9861145 7 13.0009643 7 7.99845755 2.62267562 2.99595076 7 0.0187683105 7 7.99845755 0.035897063"></polygon>
        </g>
        <g id="首页-悬浮" transform="translate(16.000000, 18.000000)" fill="#F66F6A">
            <rect id="Rectangle-8" x="11" y="0" width="2" height="5"></rect>
            <polygon id="Combined-Shape" points="11 14 13 14 13 7 15 7 15 16 9 16 9 12 7 12 7 16 1 16 1 7 3 7 3 14 5 14 5 10 11 10"></polygon>
            <polygon id="Combined-Shape" fill-rule="nonzero" points="15.9861145 7 13.0009643 7 7.99845755 2.62267562 2.99595076 7 0.0187683105 7 7.99845755 0.035897063"></polygon>
        </g>
        <path d="M7.00513297,35.998981 C9.76415463,35.998981 12.0087994,38.2408381 12.0087994,40.9964334 C12.0087994,43.7520287 9.76415463,45.9938858 7.00513297,45.9938858 C4.24611131,45.9938858 2.00146656,43.7520287 2.00146656,40.9964334 C2.00146656,38.2408381 4.24611131,35.998981 7.00513297,35.998981 M12.6096204,45.1944744 L15.9999318,48.5847858 L14.5846947,50.0000227 L11.191367,46.606695 C10.0234848,47.477386 8.57458346,47.9928668 7.00513297,47.9928668 C3.1362981,47.9928668 0,44.8604636 0,40.9964334 C0,37.1324032 3.1362981,34 7.00513297,34 C10.8739678,34 14.0102659,37.1324032 14.0102659,40.9964334 C14.0102659,42.5715615 13.4891096,44.0251156 12.6096204,45.1944744 Z" id="搜索-默认" fill="#A0A2A8"></path>
        <path d="M23.005133,35.998981 C25.7641546,35.998981 28.0087994,38.2408381 28.0087994,40.9964334 C28.0087994,43.7520287 25.7641546,45.9938858 23.005133,45.9938858 C20.2461113,45.9938858 18.0014666,43.7520287 18.0014666,40.9964334 C18.0014666,38.2408381 20.2461113,35.998981 23.005133,35.998981 M28.6096204,45.1944744 L31.9999318,48.5847858 L30.5846947,50.0000227 L27.191367,46.606695 C26.0234848,47.477386 24.5745835,47.9928668 23.005133,47.9928668 C19.1362981,47.9928668 16,44.8604636 16,40.9964334 C16,37.1324032 19.1362981,34 23.005133,34 C26.8739678,34 30.0102659,37.1324032 30.0102659,40.9964334 C30.0102659,42.5715615 29.4891096,44.0251156 28.6096204,45.1944744 Z" id="搜索-悬浮" fill="#F66F6A"></path>
        <polygon id="关闭-默认" fill="#A0A2A8" fill-rule="nonzero" points="13 53.4473684 11.5526316 52 7.5 56.1491228 3.44736842 52 2 53.4473684 6.14912281 57.5 2 61.5526316 3.44736842 63 7.5 58.8508772 11.5526316 63 13 61.5526316 8.85087719 57.5"></polygon>
        <polygon id="关闭-悬浮" fill="#F66F6A" fill-rule="nonzero" points="29 53.4473684 27.5526316 52 23.5 56.1491228 19.4473684 52 18 53.4473684 22.1491228 57.5 18 61.5526316 19.4473684 63 23.5 58.8508772 27.5526316 63 29 61.5526316 24.8508772 57.5"></polygon>
        <g id="写博客-默认" transform="translate(1.000000, 66.000000)" fill="#A0A2A8">
            <path d="M12,14 L12,8 L14,8 L14,14 L14,16 L2,16 L0,16 L0,2 L0,0 L8,0 L8,2 L2,2 L2,14 L12,14 Z" id="Combined-Shape" fill-rule="nonzero"></path>
            <path d="M9.8660254,11.6961524 L8.8660254,9.69615242 L10.8660254,9.69615242 L9.8660254,11.6961524 Z M8.8660254,-0.303847577 L10.8660254,-0.303847577 L10.8660254,8.69615242 L8.8660254,8.69615242 L8.8660254,-0.303847577 Z" id="Combined-Shape" transform="translate(9.866025, 5.696152) rotate(-330.000000) translate(-9.866025, -5.696152) "></path>
        </g>
        <g id="写博客-悬浮" transform="translate(17.000000, 66.000000)" fill="#F66F6A">
            <path d="M12,14 L12,8 L14,8 L14,14 L14,16 L2,16 L0,16 L0,2 L0,0 L8,0 L8,2 L2,2 L2,14 L12,14 Z" id="Combined-Shape" fill-rule="nonzero"></path>
            <path d="M9.8660254,11.6961524 L8.8660254,9.69615242 L10.8660254,9.69615242 L9.8660254,11.6961524 Z M8.8660254,-0.303847577 L10.8660254,-0.303847577 L10.8660254,8.69615242 L8.8660254,8.69615242 L8.8660254,-0.303847577 Z" id="Combined-Shape" transform="translate(9.866025, 5.696152) rotate(-330.000000) translate(-9.866025, -5.696152) "></path>
        </g>
        <g id="提问题-悬浮" transform="translate(16.000000, 82.000000)" fill="#F66F6A">
            <path d="M13.6568542,13.6568542 C12.209139,15.1045695 10.209139,16 8,16 C3.581722,16 0,12.418278 0,8 C0,3.581722 3.581722,0 8,0 C12.418278,0 16,3.581722 16,8 L14,8 C14,4.6862915 11.3137085,2 8,2 C4.6862915,2 2,4.6862915 2,8 C2,11.3137085 4.6862915,14 8,14 C9.61473614,14 11.1233868,13.3618946 12.2426407,12.2426407 L13.6568542,13.6568542 Z" id="Oval-2" fill-rule="nonzero" transform="translate(8.000000, 8.000000) rotate(-270.000000) translate(-8.000000, -8.000000) "></path>
            <path d="M7.0046618,7.28997148 L5.0091742,7.4242444 C4.94061782,6.40539862 5.25850554,5.51080122 5.95059499,4.8168406 C7.35972553,3.40390027 10.5178867,3.75385341 11.1249818,6.08074305 C11.4904494,7.48151684 11.0680993,8.43740899 10.096834,9.25873663 C10.0470135,9.30086613 9.69448843,9.58513826 9.63179384,9.64302097 C9.60789821,9.66508257 9.59143138,9.6818566 9.58192906,9.69291553 C9.20768598,10.1284648 8.99765535,10.8154038 8.99765535,12.0221171 L6.99765535,12.0221171 C6.99765535,10.3707596 7.34845545,9.22341141 8.06499179,8.38949645 C8.12889289,8.31512745 8.19811741,8.24461151 8.27509739,8.17353985 C8.39614633,8.06178158 8.80078221,7.73548788 8.8054189,7.73156697 C9.24004295,7.36403738 9.33611688,7.14659621 9.18976356,6.58564946 C9.02181759,5.94194185 7.7893449,5.8053726 7.36671644,6.22914369 C7.09059501,6.50601166 6.97399091,6.83415811 7.0046618,7.28997148 Z" id="Path-3" fill-rule="nonzero"></path>
            <path d="M8,16 C8.55228475,16 9,15.5522847 9,15 C9,14.4477153 8.55228475,14 8,14 C7.44771525,14 7,14.4477153 7,15 C7,15.5522847 7.44771525,16 8,16 Z" id="Oval"></path>
        </g>
        <g id="提问题-默认" transform="translate(0.000000, 82.000000)" fill="#A0A2A8">
            <path d="M7.0046618,7.28997148 L5.0091742,7.4242444 C4.94061782,6.40539862 5.25850554,5.51080122 5.95059499,4.8168406 C7.35972553,3.40390027 10.5178867,3.75385341 11.1249818,6.08074305 C11.4904494,7.48151684 11.0680993,8.43740899 10.096834,9.25873663 C10.0470135,9.30086613 9.69448843,9.58513826 9.63179384,9.64302097 C9.60789821,9.66508257 9.59143138,9.6818566 9.58192906,9.69291553 C9.20768598,10.1284648 8.99765535,10.8154038 8.99765535,12.0221171 L6.99765535,12.0221171 C6.99765535,10.3707596 7.34845545,9.22341141 8.06499179,8.38949645 C8.12889289,8.31512745 8.19811741,8.24461151 8.27509739,8.17353985 C8.39614633,8.06178158 8.80078221,7.73548788 8.8054189,7.73156697 C9.24004295,7.36403738 9.33611688,7.14659621 9.18976356,6.58564946 C9.02181759,5.94194185 7.7893449,5.8053726 7.36671644,6.22914369 C7.09059501,6.50601166 6.97399091,6.83415811 7.0046618,7.28997148 Z" id="Path-3" fill-rule="nonzero"></path>
            <path d="M8,16 C8.55228475,16 9,15.5522847 9,15 C9,14.4477153 8.55228475,14 8,14 C7.44771525,14 7,14.4477153 7,15 C7,15.5522847 7.44771525,16 8,16 Z" id="Oval"></path>
            <path d="M13.6568542,13.6568542 C12.209139,15.1045695 10.209139,16 8,16 C3.581722,16 0,12.418278 0,8 C0,3.581722 3.581722,0 8,0 C12.418278,0 16,3.581722 16,8 L14,8 C14,4.6862915 11.3137085,2 8,2 C4.6862915,2 2,4.6862915 2,8 C2,11.3137085 4.6862915,14 8,14 C9.61473614,14 11.1233868,13.3618946 12.2426407,12.2426407 L13.6568542,13.6568542 Z" id="Oval-2" fill-rule="nonzero" transform="translate(8.000000, 8.000000) rotate(-270.000000) translate(-8.000000, -8.000000) "></path>
        </g>
        <text id="NEW-" font-family="Roboto-Medium, Roboto" font-size="12" font-weight="400" line-spacing="12" fill="#F66F6A">
            <tspan x="0" y="109">NEW</tspan>
        </text>
    </g>
</svg>