<?xml version="1.0" encoding="UTF-8"?>
<svg width="60px" height="60px" viewBox="0 0 60 60" version="1.1" xmlns="http://www.w3.org/2000/svg" xmlns:xlink="http://www.w3.org/1999/xlink">
    <!-- Generator: Sketch 57.1 (83088) - https://sketch.com -->
    <title>专题页图标-0727</title>
    <desc>Created with Sketch.</desc>
    <defs>
        <polygon id="path-1" points="25 17.1947098 25 15.7252021 22.158545 15.7252021 24.6201098 12.946363 23.4402883 12 20.5432395 15.2667157 18.089396 12.0426157 16.8385381 12.9037472 18.9850721 15.7252021 16 15.7252021 16 17.1947098 19.7263212 17.1947098 19.7263212 18.4496694 16 18.4496694 16 19.9191771 19.7263212 19.9191771 19.7263212 24 21.2721345 24 21.2721345 19.9191771 25 19.9191771 25 18.4496694 21.2721345 18.4496694 21.2721345 17.1947098"></polygon>
        <filter x="-233.3%" y="-175.0%" width="566.7%" height="450.0%" filterUnits="objectBoundingBox" id="filter-2">
            <feOffset dx="0" dy="0" in="SourceAlpha" result="shadowOffsetOuter1"></feOffset>
            <feGaussianBlur stdDeviation="7" in="shadowOffsetOuter1" result="shadowBlurOuter1"></feGaussianBlur>
            <feColorMatrix values="0 0 0 0 0.904420732   0 0 0 0 0.927057927   0 0 0 0 1  0 0 0 1 0" type="matrix" in="shadowBlurOuter1" result="shadowMatrixOuter1"></feColorMatrix>
            <feOffset dx="0" dy="0" in="SourceAlpha" result="shadowOffsetOuter2"></feOffset>
            <feGaussianBlur stdDeviation="4" in="shadowOffsetOuter2" result="shadowBlurOuter2"></feGaussianBlur>
            <feColorMatrix values="0 0 0 0 1   0 0 0 0 1   0 0 0 0 1  0 0 0 0.5 0" type="matrix" in="shadowBlurOuter2" result="shadowMatrixOuter2"></feColorMatrix>
            <feOffset dx="0" dy="0" in="SourceAlpha" result="shadowOffsetOuter3"></feOffset>
            <feGaussianBlur stdDeviation="1" in="shadowOffsetOuter3" result="shadowBlurOuter3"></feGaussianBlur>
            <feColorMatrix values="0 0 0 0 1   0 0 0 0 1   0 0 0 0 1  0 0 0 1 0" type="matrix" in="shadowBlurOuter3" result="shadowMatrixOuter3"></feColorMatrix>
            <feMerge>
                <feMergeNode in="shadowMatrixOuter1"></feMergeNode>
                <feMergeNode in="shadowMatrixOuter2"></feMergeNode>
                <feMergeNode in="shadowMatrixOuter3"></feMergeNode>
            </feMerge>
        </filter>
    </defs>
    <g id="页面-1" stroke="none" stroke-width="1" fill="none" fill-rule="evenodd">
        <g id="专题页图标-0727" transform="translate(-316.000000, -4546.000000)">
            <g id="编组-82" transform="translate(315.000000, 4545.000000)">
                <rect id="矩形" x="0" y="0" width="60" height="60"></rect>
                <g id="编组-81" transform="translate(3.000000, 5.000000)">
                    <path d="M26.498009,0 C20.6324226,0 15.4092765,3.54183673 13.1925919,9.02438776 C13.0133988,9.46612245 12.6112099,9.78183673 12.1399985,9.85346939 C5.21783666,10.8921429 0,16.9543878 0,23.9531633 C0,31.8592857 6.49608054,39 14.4734904,39 L38.5291643,39 C46.5118836,39 53,31.8592857 53,23.9531633 C53,16.9543878 47.7781813,10.8908163 40.8573468,9.85346939 C40.3874627,9.78316327 39.9919106,9.46744898 39.8074081,9.02438776 C37.5880688,3.54183673 32.3635954,0 26.498009,0 Z" id="Path" fill="#96ADFA"></path>
                    <path d="M37.6620945,51.741634 L22.6316532,35.4239696 C21.8888983,34.6176044 21.7581651,33.421396 22.3092117,32.4736317 L25.6408601,26.7434133 C26.0884286,25.9736247 26.9116625,25.5 27.8021074,25.5 L51.2030568,25.5 C52.0939938,25.5 52.9176051,25.9741439 53.3649963,26.7446047 L56.6921003,32.474272 C57.242343,33.4218551 57.1113913,34.6173212 56.3690614,35.4233156 L41.339801,51.7415311 C40.4044249,52.7571279 38.8228489,52.8221596 37.8072521,51.8867835 C37.7568994,51.8404081 37.7084727,51.7919841 37.6620945,51.741634 Z" id="形状" stroke="#FAFAFA" fill="#2A3C85"></path>
                    <path d="M51.2030568,26 C51.7399822,26 52.2463426,26.2152554 52.6164973,26.5849502 C51.062,33.436523 44.9712155,39 37.7100604,39 L37.7100604,39 L26.6044297,39 L22.9994144,35.0852193 C22.4052105,34.4401272 22.3006239,33.4831605 22.7414612,32.724949 L26.0731096,26.9947307 C26.4311644,26.3788997 27.0897515,26 27.8021074,26 L51.2030568,26 Z" id="形状结合" fill="#5E7CE0"></path>
                    <g id="路径">
                        <use fill="black" fill-opacity="1" filter="url(#filter-2)" xlink:href="#path-1"></use>
                        <use fill="#FFFFFF" fill-rule="evenodd" xlink:href="#path-1"></use>
                    </g>
                </g>
            </g>
        </g>
    </g>
</svg>